<?xml version="1.0" encoding="iso-8859-1"?>
<!-- Generator: Adobe Illustrator 19.0.0, SVG Export Plug-In . SVG Version: 6.00 Build 0)  -->
<svg version="1.1" id="Layer_1" xmlns="http://www.w3.org/2000/svg" xmlns:xlink="http://www.w3.org/1999/xlink" x="0px" y="0px"
	 viewBox="0 0 512 512" style="enable-background:new 0 0 512 512;" xml:space="preserve">
<path style="fill:#B07C57;" d="M0,379.996V166.173c0-19.64,15.921-35.563,35.563-35.563h440.875
	c19.641,0,35.563,15.921,35.563,35.563v213.822c0,19.64-15.921,35.563-35.563,35.563H35.563C15.921,415.558,0,399.636,0,379.996z"/>
<path style="fill:#F9E0A4;" d="M459.016,167.742H52.984c-8.755,0-15.852,7.097-15.852,15.852v178.979
	c0,8.755,7.097,15.852,15.852,15.852h406.033c8.755,0,15.852-7.097,15.852-15.852V183.594
	C474.869,174.84,467.772,167.742,459.016,167.742z"/>
<path style="fill:#333E48;" d="M71.943,333.156V213.012c0-5.776,4.682-10.458,10.458-10.458h347.199
	c5.776,0,10.458,4.682,10.458,10.458v120.145c0,5.776-4.682,10.458-10.458,10.458H82.401
	C76.625,343.614,71.943,338.932,71.943,333.156z"/>
<g>
	<path style="fill:#FFFFFF;" d="M406.456,320.061h-41.05c-4.652,0-8.421-3.769-8.421-8.421v-77.112c0-4.652,3.769-8.421,8.421-8.421
		h41.05c4.652,0,8.421,3.769,8.421,8.421v77.112C414.877,316.291,411.108,320.061,406.456,320.061z M373.827,303.219h24.208v-60.27
		h-24.208V303.219z"/>
	<path style="fill:#FFFFFF;" d="M331.783,320.061h-41.051c-4.652,0-8.421-3.769-8.421-8.421c0-4.652,3.769-8.421,8.421-8.421h32.63
		v-60.27h-32.63c-4.652,0-8.421-3.769-8.421-8.421s3.769-8.421,8.421-8.421h41.051c4.652,0,8.421,3.769,8.421,8.421v77.112
		C340.204,316.291,336.435,320.061,331.783,320.061z"/>
	<path style="fill:#FFFFFF;" d="M331.783,281.505h-41.051c-4.652,0-8.421-3.769-8.421-8.421s3.769-8.421,8.421-8.421h41.051
		c4.652,0,8.421,3.769,8.421,8.421C340.204,277.735,336.435,281.505,331.783,281.505z"/>
	<path style="fill:#FFFFFF;" d="M256,264.386c-4.652,0-8.421-3.769-8.421-8.421v-6.934c0-4.652,3.769-8.421,8.421-8.421
		s8.421,3.769,8.421,8.421v6.934C264.421,260.615,260.652,264.386,256,264.386z"/>
	<path style="fill:#FFFFFF;" d="M256,305.559c-4.652,0-8.421-3.769-8.421-8.421v-6.934c0-4.652,3.769-8.421,8.421-8.421
		s8.421,3.769,8.421,8.421v6.934C264.421,301.789,260.652,305.559,256,305.559z"/>
	<path style="fill:#FFFFFF;" d="M146.594,320.061h-41.05c-4.652,0-8.421-3.769-8.421-8.421v-77.112c0-4.652,3.769-8.421,8.421-8.421
		h41.05c4.652,0,8.421,3.769,8.421,8.421v77.112C155.015,316.291,151.244,320.061,146.594,320.061z M113.965,303.219h24.208v-60.27
		h-24.208V303.219z"/>
	<path style="fill:#FFFFFF;" d="M221.266,320.061h-41.049c-4.652,0-8.421-3.769-8.421-8.421c0-4.652,3.769-8.421,8.421-8.421h32.628
		v-21.714h-32.628c-4.652,0-8.421-3.769-8.421-8.421v-38.556c0-4.652,3.769-8.421,8.421-8.421h41.049
		c4.652,0,8.421,3.769,8.421,8.421s-3.769,8.421-8.421,8.421h-32.628v21.714h32.628c4.652,0,8.421,3.769,8.421,8.421v38.556
		C229.687,316.291,225.918,320.061,221.266,320.061z"/>
</g>
<path style="fill:#C3C6C8;" d="M145.208,96.443h-45.37c-6.358,0-11.513,5.155-11.513,11.513v22.655h68.396v-22.655
	C156.72,101.598,151.565,96.443,145.208,96.443z"/>
<path style="opacity:0.15;enable-background:new    ;" d="M101.672,124.744c-2.411,0-4.365-1.955-4.365-4.365V102.09
	c0-2.03,0.53-3.935,1.453-5.592c-5.852,0.543-10.435,5.464-10.435,11.458v22.655h68.396v-5.867H101.672z"/>
<path style="fill:#C3C6C8;" d="M273.738,96.443h-45.37c-6.358,0-11.513,5.155-11.513,11.513v22.655h68.396v-22.655
	C285.25,101.598,280.097,96.443,273.738,96.443z"/>
<path style="opacity:0.15;enable-background:new    ;" d="M230.204,124.744c-2.411,0-4.365-1.955-4.365-4.365V102.09
	c0-2.03,0.53-3.935,1.453-5.592c-5.852,0.543-10.435,5.464-10.435,11.458v22.655h68.396v-5.867H230.204z"/>
<path style="opacity:0.2;enable-background:new    ;" d="M499.274,393.848H58.399c-19.641,0-35.563-15.923-35.563-35.563V144.463
	c0-4.308,0.767-8.438,2.17-12.259C10.521,136.7,0,150.209,0,166.173v213.822c0,19.64,15.921,35.563,35.563,35.563h440.875
	c15.332,0,28.398-9.703,33.392-23.303C506.495,393.29,502.949,393.848,499.274,393.848z"/>
<g>
</g>
<g>
</g>
<g>
</g>
<g>
</g>
<g>
</g>
<g>
</g>
<g>
</g>
<g>
</g>
<g>
</g>
<g>
</g>
<g>
</g>
<g>
</g>
<g>
</g>
<g>
</g>
<g>
</g>
</svg>
